<mxfile host="app.diagrams.net" agent="Mozilla/5.0 (Windows NT 10.0; Win64; x64) AppleWebKit/537.36 (KHTML, like Gecko) Chrome/132.0.0.0 YaBrowser/25.2.0.0 Safari/537.36" version="26.0.16">
  <diagram name="Страница — 1" id="9GwY5sjzdShZCwXxTEFl">
    <mxGraphModel dx="3695" dy="2703" grid="1" gridSize="10" guides="1" tooltips="1" connect="1" arrows="1" fold="1" page="1" pageScale="1" pageWidth="827" pageHeight="1169" math="0" shadow="0">
      <root>
        <mxCell id="0" />
        <mxCell id="1" parent="0" />
        <mxCell id="hEL7Y6E94WMZGkK0X2fc-1" value="Web Browser&lt;div&gt;&lt;br&gt;&lt;/div&gt;" style="verticalAlign=top;align=left;spacingTop=8;spacingLeft=2;spacingRight=12;shape=cube;size=10;direction=south;fontStyle=4;html=1;whiteSpace=wrap;" vertex="1" parent="1">
          <mxGeometry x="290" y="-10" width="230" height="150" as="geometry" />
        </mxCell>
        <mxCell id="hEL7Y6E94WMZGkK0X2fc-2" value="User Interface" style="html=1;dropTarget=0;whiteSpace=wrap;" vertex="1" parent="1">
          <mxGeometry x="337.5" y="40" width="135" height="70" as="geometry" />
        </mxCell>
        <mxCell id="hEL7Y6E94WMZGkK0X2fc-3" value="" style="shape=module;jettyWidth=8;jettyHeight=4;" vertex="1" parent="hEL7Y6E94WMZGkK0X2fc-2">
          <mxGeometry x="1" width="20" height="20" relative="1" as="geometry">
            <mxPoint x="-27" y="7" as="offset" />
          </mxGeometry>
        </mxCell>
        <mxCell id="hEL7Y6E94WMZGkK0X2fc-4" value="Web Server" style="verticalAlign=top;align=left;spacingTop=8;spacingLeft=2;spacingRight=12;shape=cube;size=10;direction=south;fontStyle=4;html=1;whiteSpace=wrap;" vertex="1" parent="1">
          <mxGeometry x="140" y="220" width="500" height="200" as="geometry" />
        </mxCell>
        <mxCell id="hEL7Y6E94WMZGkK0X2fc-5" value="&lt;p style=&quot;margin:0px;margin-top:6px;text-align:center;&quot;&gt;&lt;b&gt;Server&lt;/b&gt;&lt;/p&gt;&lt;hr size=&quot;1&quot; style=&quot;border-style:solid;&quot;&gt;&lt;p style=&quot;margin:0px;margin-left:8px;&quot;&gt;+ Frontend Application&amp;nbsp;&lt;br&gt;+ Static Content&amp;nbsp;&lt;/p&gt;" style="align=left;overflow=fill;html=1;dropTarget=0;whiteSpace=wrap;" vertex="1" parent="1">
          <mxGeometry x="245" y="280" width="290" height="110" as="geometry" />
        </mxCell>
        <mxCell id="hEL7Y6E94WMZGkK0X2fc-6" value="" style="shape=component;jettyWidth=8;jettyHeight=4;" vertex="1" parent="hEL7Y6E94WMZGkK0X2fc-5">
          <mxGeometry x="1" width="20" height="20" relative="1" as="geometry">
            <mxPoint x="-24" y="4" as="offset" />
          </mxGeometry>
        </mxCell>
        <mxCell id="hEL7Y6E94WMZGkK0X2fc-7" value="Application Server" style="verticalAlign=top;align=left;spacingTop=8;spacingLeft=2;spacingRight=12;shape=cube;size=10;direction=south;fontStyle=4;html=1;whiteSpace=wrap;" vertex="1" parent="1">
          <mxGeometry x="-167" y="500" width="1517" height="430" as="geometry" />
        </mxCell>
        <mxCell id="hEL7Y6E94WMZGkK0X2fc-31" style="edgeStyle=orthogonalEdgeStyle;rounded=0;orthogonalLoop=1;jettySize=auto;html=1;entryX=0.5;entryY=0;entryDx=0;entryDy=0;curved=1;" edge="1" parent="1" source="hEL7Y6E94WMZGkK0X2fc-13" target="hEL7Y6E94WMZGkK0X2fc-17">
          <mxGeometry relative="1" as="geometry" />
        </mxCell>
        <mxCell id="hEL7Y6E94WMZGkK0X2fc-32" style="edgeStyle=orthogonalEdgeStyle;rounded=0;orthogonalLoop=1;jettySize=auto;html=1;entryX=0.5;entryY=0;entryDx=0;entryDy=0;curved=1;" edge="1" parent="1" source="hEL7Y6E94WMZGkK0X2fc-13" target="hEL7Y6E94WMZGkK0X2fc-19">
          <mxGeometry relative="1" as="geometry" />
        </mxCell>
        <mxCell id="hEL7Y6E94WMZGkK0X2fc-33" style="edgeStyle=orthogonalEdgeStyle;rounded=0;orthogonalLoop=1;jettySize=auto;html=1;curved=1;" edge="1" parent="1" source="hEL7Y6E94WMZGkK0X2fc-13" target="hEL7Y6E94WMZGkK0X2fc-21">
          <mxGeometry relative="1" as="geometry">
            <Array as="points">
              <mxPoint x="590" y="730" />
              <mxPoint x="590" y="740" />
              <mxPoint x="900" y="740" />
            </Array>
          </mxGeometry>
        </mxCell>
        <mxCell id="hEL7Y6E94WMZGkK0X2fc-34" style="edgeStyle=orthogonalEdgeStyle;rounded=0;orthogonalLoop=1;jettySize=auto;html=1;entryX=0.5;entryY=0;entryDx=0;entryDy=0;curved=1;" edge="1" parent="1" source="hEL7Y6E94WMZGkK0X2fc-13" target="hEL7Y6E94WMZGkK0X2fc-23">
          <mxGeometry relative="1" as="geometry" />
        </mxCell>
        <mxCell id="hEL7Y6E94WMZGkK0X2fc-44" style="edgeStyle=orthogonalEdgeStyle;rounded=0;orthogonalLoop=1;jettySize=auto;html=1;entryX=0.5;entryY=0;entryDx=0;entryDy=0;" edge="1" parent="1" source="hEL7Y6E94WMZGkK0X2fc-13" target="hEL7Y6E94WMZGkK0X2fc-36">
          <mxGeometry relative="1" as="geometry">
            <Array as="points">
              <mxPoint x="120" y="480" />
              <mxPoint x="2055" y="480" />
            </Array>
          </mxGeometry>
        </mxCell>
        <mxCell id="hEL7Y6E94WMZGkK0X2fc-13" value="" style="html=1;dropTarget=0;whiteSpace=wrap;" vertex="1" parent="1">
          <mxGeometry x="-130" y="570" width="500" height="320" as="geometry" />
        </mxCell>
        <mxCell id="hEL7Y6E94WMZGkK0X2fc-14" value="" style="shape=module;jettyWidth=8;jettyHeight=4;" vertex="1" parent="hEL7Y6E94WMZGkK0X2fc-13">
          <mxGeometry x="1" width="20" height="20" relative="1" as="geometry">
            <mxPoint x="-27" y="7" as="offset" />
          </mxGeometry>
        </mxCell>
        <mxCell id="hEL7Y6E94WMZGkK0X2fc-9" value="Authentication Module" style="html=1;dropTarget=0;whiteSpace=wrap;" vertex="1" parent="1">
          <mxGeometry x="30" y="600" width="180" height="90" as="geometry" />
        </mxCell>
        <mxCell id="hEL7Y6E94WMZGkK0X2fc-10" value="" style="shape=module;jettyWidth=8;jettyHeight=4;" vertex="1" parent="hEL7Y6E94WMZGkK0X2fc-9">
          <mxGeometry x="1" width="20" height="20" relative="1" as="geometry">
            <mxPoint x="-27" y="7" as="offset" />
          </mxGeometry>
        </mxCell>
        <mxCell id="hEL7Y6E94WMZGkK0X2fc-11" value="Business Logic" style="html=1;dropTarget=0;whiteSpace=wrap;" vertex="1" parent="1">
          <mxGeometry x="-100" y="760" width="180" height="90" as="geometry" />
        </mxCell>
        <mxCell id="hEL7Y6E94WMZGkK0X2fc-12" value="" style="shape=module;jettyWidth=8;jettyHeight=4;" vertex="1" parent="hEL7Y6E94WMZGkK0X2fc-11">
          <mxGeometry x="1" width="20" height="20" relative="1" as="geometry">
            <mxPoint x="-27" y="7" as="offset" />
          </mxGeometry>
        </mxCell>
        <mxCell id="hEL7Y6E94WMZGkK0X2fc-15" value="Integration Module" style="html=1;dropTarget=0;whiteSpace=wrap;" vertex="1" parent="1">
          <mxGeometry x="158" y="760" width="180" height="90" as="geometry" />
        </mxCell>
        <mxCell id="hEL7Y6E94WMZGkK0X2fc-16" value="" style="shape=module;jettyWidth=8;jettyHeight=4;" vertex="1" parent="hEL7Y6E94WMZGkK0X2fc-15">
          <mxGeometry x="1" width="20" height="20" relative="1" as="geometry">
            <mxPoint x="-27" y="7" as="offset" />
          </mxGeometry>
        </mxCell>
        <mxCell id="hEL7Y6E94WMZGkK0X2fc-17" value="AI Assistant Module" style="html=1;dropTarget=0;whiteSpace=wrap;" vertex="1" parent="1">
          <mxGeometry x="413" y="790" width="180" height="90" as="geometry" />
        </mxCell>
        <mxCell id="hEL7Y6E94WMZGkK0X2fc-18" value="" style="shape=module;jettyWidth=8;jettyHeight=4;" vertex="1" parent="hEL7Y6E94WMZGkK0X2fc-17">
          <mxGeometry x="1" width="20" height="20" relative="1" as="geometry">
            <mxPoint x="-27" y="7" as="offset" />
          </mxGeometry>
        </mxCell>
        <mxCell id="hEL7Y6E94WMZGkK0X2fc-19" value="CRM Module" style="html=1;dropTarget=0;whiteSpace=wrap;" vertex="1" parent="1">
          <mxGeometry x="610" y="790" width="180" height="90" as="geometry" />
        </mxCell>
        <mxCell id="hEL7Y6E94WMZGkK0X2fc-20" value="" style="shape=module;jettyWidth=8;jettyHeight=4;" vertex="1" parent="hEL7Y6E94WMZGkK0X2fc-19">
          <mxGeometry x="1" width="20" height="20" relative="1" as="geometry">
            <mxPoint x="-27" y="7" as="offset" />
          </mxGeometry>
        </mxCell>
        <mxCell id="hEL7Y6E94WMZGkK0X2fc-21" value="Dialog Management Module" style="html=1;dropTarget=0;whiteSpace=wrap;" vertex="1" parent="1">
          <mxGeometry x="810" y="790" width="180" height="90" as="geometry" />
        </mxCell>
        <mxCell id="hEL7Y6E94WMZGkK0X2fc-22" value="" style="shape=module;jettyWidth=8;jettyHeight=4;" vertex="1" parent="hEL7Y6E94WMZGkK0X2fc-21">
          <mxGeometry x="1" width="20" height="20" relative="1" as="geometry">
            <mxPoint x="-27" y="7" as="offset" />
          </mxGeometry>
        </mxCell>
        <mxCell id="hEL7Y6E94WMZGkK0X2fc-23" value="Company and Operator Management" style="html=1;dropTarget=0;whiteSpace=wrap;" vertex="1" parent="1">
          <mxGeometry x="1010" y="790" width="180" height="90" as="geometry" />
        </mxCell>
        <mxCell id="hEL7Y6E94WMZGkK0X2fc-24" value="" style="shape=module;jettyWidth=8;jettyHeight=4;" vertex="1" parent="hEL7Y6E94WMZGkK0X2fc-23">
          <mxGeometry x="1" width="20" height="20" relative="1" as="geometry">
            <mxPoint x="-27" y="7" as="offset" />
          </mxGeometry>
        </mxCell>
        <mxCell id="hEL7Y6E94WMZGkK0X2fc-25" value="BackendApplication" style="text;align=center;fontStyle=1;verticalAlign=middle;spacingLeft=3;spacingRight=3;strokeColor=none;rotatable=0;points=[[0,0.5],[1,0.5]];portConstraint=eastwest;html=1;" vertex="1" parent="1">
          <mxGeometry x="-100" y="574" width="80" height="26" as="geometry" />
        </mxCell>
        <mxCell id="hEL7Y6E94WMZGkK0X2fc-26" style="edgeStyle=orthogonalEdgeStyle;rounded=0;orthogonalLoop=1;jettySize=auto;html=1;" edge="1" parent="1" source="hEL7Y6E94WMZGkK0X2fc-1" target="hEL7Y6E94WMZGkK0X2fc-5">
          <mxGeometry relative="1" as="geometry">
            <Array as="points">
              <mxPoint x="390" y="180" />
              <mxPoint x="390" y="180" />
            </Array>
          </mxGeometry>
        </mxCell>
        <mxCell id="hEL7Y6E94WMZGkK0X2fc-30" value="" style="edgeStyle=none;orthogonalLoop=1;jettySize=auto;html=1;rounded=0;entryX=0.722;entryY=0.016;entryDx=0;entryDy=0;entryPerimeter=0;" edge="1" parent="1" source="hEL7Y6E94WMZGkK0X2fc-4" target="hEL7Y6E94WMZGkK0X2fc-13">
          <mxGeometry width="100" relative="1" as="geometry">
            <mxPoint x="300" y="440" as="sourcePoint" />
            <mxPoint x="400" y="440" as="targetPoint" />
            <Array as="points" />
          </mxGeometry>
        </mxCell>
        <mxCell id="hEL7Y6E94WMZGkK0X2fc-35" value="" style="shape=datastore;whiteSpace=wrap;html=1;" vertex="1" parent="1">
          <mxGeometry x="1430" y="560" width="390" height="310" as="geometry" />
        </mxCell>
        <mxCell id="hEL7Y6E94WMZGkK0X2fc-36" value="" style="shape=datastore;whiteSpace=wrap;html=1;" vertex="1" parent="1">
          <mxGeometry x="1860" y="560" width="390" height="300" as="geometry" />
        </mxCell>
        <mxCell id="hEL7Y6E94WMZGkK0X2fc-37" value="&lt;font style=&quot;font-size: 20px;&quot;&gt;Postgre SQL&lt;/font&gt;" style="text;align=center;fontStyle=1;verticalAlign=middle;spacingLeft=3;spacingRight=3;strokeColor=none;rotatable=0;points=[[0,0.5],[1,0.5]];portConstraint=eastwest;html=1;" vertex="1" parent="1">
          <mxGeometry x="1585" y="680" width="80" height="26" as="geometry" />
        </mxCell>
        <mxCell id="hEL7Y6E94WMZGkK0X2fc-38" value="&lt;font style=&quot;font-size: 22px;&quot;&gt;Redis&lt;/font&gt;" style="text;align=center;fontStyle=1;verticalAlign=middle;spacingLeft=3;spacingRight=3;strokeColor=none;rotatable=0;points=[[0,0.5],[1,0.5]];portConstraint=eastwest;html=1;" vertex="1" parent="1">
          <mxGeometry x="2028" y="690" width="80" height="26" as="geometry" />
        </mxCell>
        <mxCell id="hEL7Y6E94WMZGkK0X2fc-39" value="&lt;font style=&quot;font-size: 18px;&quot;&gt;Database&lt;/font&gt;" style="html=1;dropTarget=0;whiteSpace=wrap;" vertex="1" parent="1">
          <mxGeometry x="1530" y="730" width="190" height="100" as="geometry" />
        </mxCell>
        <mxCell id="hEL7Y6E94WMZGkK0X2fc-40" value="" style="shape=module;jettyWidth=8;jettyHeight=4;" vertex="1" parent="hEL7Y6E94WMZGkK0X2fc-39">
          <mxGeometry x="1" width="20" height="20" relative="1" as="geometry">
            <mxPoint x="-27" y="7" as="offset" />
          </mxGeometry>
        </mxCell>
        <mxCell id="hEL7Y6E94WMZGkK0X2fc-41" value="&lt;font style=&quot;font-size: 18px;&quot;&gt;Cache&lt;/font&gt;" style="html=1;dropTarget=0;whiteSpace=wrap;" vertex="1" parent="1">
          <mxGeometry x="1973" y="730" width="190" height="100" as="geometry" />
        </mxCell>
        <mxCell id="hEL7Y6E94WMZGkK0X2fc-42" value="" style="shape=module;jettyWidth=8;jettyHeight=4;" vertex="1" parent="hEL7Y6E94WMZGkK0X2fc-41">
          <mxGeometry x="1" width="20" height="20" relative="1" as="geometry">
            <mxPoint x="-27" y="7" as="offset" />
          </mxGeometry>
        </mxCell>
        <mxCell id="hEL7Y6E94WMZGkK0X2fc-43" style="edgeStyle=orthogonalEdgeStyle;rounded=0;orthogonalLoop=1;jettySize=auto;html=1;entryX=0.444;entryY=-0.01;entryDx=0;entryDy=0;entryPerimeter=0;" edge="1" parent="1" source="hEL7Y6E94WMZGkK0X2fc-13" target="hEL7Y6E94WMZGkK0X2fc-35">
          <mxGeometry relative="1" as="geometry">
            <Array as="points">
              <mxPoint x="120" y="480" />
              <mxPoint x="1603" y="480" />
            </Array>
          </mxGeometry>
        </mxCell>
        <mxCell id="hEL7Y6E94WMZGkK0X2fc-45" value="Integration" style="verticalAlign=top;align=left;spacingTop=8;spacingLeft=2;spacingRight=12;shape=cube;size=10;direction=south;fontStyle=4;html=1;whiteSpace=wrap;" vertex="1" parent="1">
          <mxGeometry x="355" y="1010" width="455" height="270" as="geometry" />
        </mxCell>
        <mxCell id="hEL7Y6E94WMZGkK0X2fc-46" value="VK API" style="html=1;dropTarget=0;whiteSpace=wrap;" vertex="1" parent="1">
          <mxGeometry x="380" y="1060" width="130" height="70" as="geometry" />
        </mxCell>
        <mxCell id="hEL7Y6E94WMZGkK0X2fc-47" value="" style="shape=module;jettyWidth=8;jettyHeight=4;" vertex="1" parent="hEL7Y6E94WMZGkK0X2fc-46">
          <mxGeometry x="1" width="20" height="20" relative="1" as="geometry">
            <mxPoint x="-27" y="7" as="offset" />
          </mxGeometry>
        </mxCell>
        <mxCell id="hEL7Y6E94WMZGkK0X2fc-48" value="Telegram API" style="html=1;dropTarget=0;whiteSpace=wrap;" vertex="1" parent="1">
          <mxGeometry x="630" y="1060" width="130" height="70" as="geometry" />
        </mxCell>
        <mxCell id="hEL7Y6E94WMZGkK0X2fc-49" value="" style="shape=module;jettyWidth=8;jettyHeight=4;" vertex="1" parent="hEL7Y6E94WMZGkK0X2fc-48">
          <mxGeometry x="1" width="20" height="20" relative="1" as="geometry">
            <mxPoint x="-27" y="7" as="offset" />
          </mxGeometry>
        </mxCell>
        <mxCell id="hEL7Y6E94WMZGkK0X2fc-50" value="Email Server" style="html=1;dropTarget=0;whiteSpace=wrap;" vertex="1" parent="1">
          <mxGeometry x="380" y="1180" width="130" height="70" as="geometry" />
        </mxCell>
        <mxCell id="hEL7Y6E94WMZGkK0X2fc-51" value="" style="shape=module;jettyWidth=8;jettyHeight=4;" vertex="1" parent="hEL7Y6E94WMZGkK0X2fc-50">
          <mxGeometry x="1" width="20" height="20" relative="1" as="geometry">
            <mxPoint x="-27" y="7" as="offset" />
          </mxGeometry>
        </mxCell>
        <mxCell id="hEL7Y6E94WMZGkK0X2fc-52" value="WhatsApp API" style="html=1;dropTarget=0;whiteSpace=wrap;" vertex="1" parent="1">
          <mxGeometry x="635" y="1180" width="130" height="70" as="geometry" />
        </mxCell>
        <mxCell id="hEL7Y6E94WMZGkK0X2fc-53" value="" style="shape=module;jettyWidth=8;jettyHeight=4;" vertex="1" parent="hEL7Y6E94WMZGkK0X2fc-52">
          <mxGeometry x="1" width="20" height="20" relative="1" as="geometry">
            <mxPoint x="-27" y="7" as="offset" />
          </mxGeometry>
        </mxCell>
        <mxCell id="hEL7Y6E94WMZGkK0X2fc-54" style="edgeStyle=orthogonalEdgeStyle;rounded=0;orthogonalLoop=1;jettySize=auto;html=1;entryX=0;entryY=0;entryDx=140;entryDy=455;entryPerimeter=0;" edge="1" parent="1" source="hEL7Y6E94WMZGkK0X2fc-13" target="hEL7Y6E94WMZGkK0X2fc-45">
          <mxGeometry relative="1" as="geometry" />
        </mxCell>
      </root>
    </mxGraphModel>
  </diagram>
</mxfile>
